<svg id="Слой_1" data-name="Слой 1" xmlns="http://www.w3.org/2000/svg" viewBox="0 0 87.12 51.77"><defs><style>.cls-1{fill:#c40816;}.cls-2{fill:#929495;}</style></defs><title>JC Final</title><path class="cls-1" d="M86.24,51.77a5,5,0,0,0-.92-2.83c-2.49-3.61-4.94-7.24-7.41-10.86l-.52-.74c-.22.23-.42.43-.61.64a36.82,36.82,0,0,1-8.39,7.07A32.9,32.9,0,0,1,56.87,49.6a27.2,27.2,0,0,1-5.51.38,24,24,0,0,1-10.28-2.61,25.07,25.07,0,0,1-11.61-12,22.37,22.37,0,0,1-2.13-7.85A17.74,17.74,0,0,1,27.59,22a31.47,31.47,0,0,0,2.24,10.16,23.16,23.16,0,0,0,7.78,10.2,19.48,19.48,0,0,0,8.65,3.56,27.81,27.81,0,0,0,4,.37,24.27,24.27,0,0,0,6-.74,30.42,30.42,0,0,0,12.6-6.66,26.7,26.7,0,0,0,4.25-4.52,4.41,4.41,0,0,0-.51-.21L59.14,30.36a3.62,3.62,0,0,0-2.11,0,1.31,1.31,0,0,1-.49.08,5.19,5.19,0,0,1,3.33-1.63c2.46-.07,4.93-.07,7.39-.17,1.94-.08,3.88-.25,5.82-.4,1.3-.1,2.6-.21,3.9-.33.29,0,.58-.08.89-.13l2-2.68c.79-1.07,1.52-2.18,2.37-3.21a6,6,0,0,1,4.39-2.42,1.65,1.65,0,0,1,.26,0A4.58,4.58,0,0,1,87,22.21a7,7,0,0,1-1.23,2.89c-1.18,1.64-2.32,3.3-3.48,5l-.44.66c.22,1,.44,2,.68,3,1.2,4.87,2.56,9.69,4.2,14.43a2.51,2.51,0,0,1,.09,1.45c-.13.52-.22,1.06-.34,1.58A4.72,4.72,0,0,1,86.24,51.77Z"/><path class="cls-2" d="M0,37H4.95a3.69,3.69,0,0,1,.15.54,8,8,0,0,0,5.52,6.94,7.94,7.94,0,0,0,3.71.48c.73-.08,1.22-.17,1.82-.28A6.64,6.64,0,0,0,20.59,42a8.41,8.41,0,0,0,1.3-3.19c.21-1,.34-2.08.48-3.13A55.39,55.39,0,0,0,22.64,28q0-11.2,0-22.4v-.8c-.32-.37-.66-.28-1-.28H9.84V.38H27.68c0,.18,0,.37,0,.56,0,3.3,0,6.6,0,9.91a2.62,2.62,0,0,1-.17.93,50.41,50.41,0,0,0-2.37,7.59,32.91,32.91,0,0,0-.58,4.08,22.11,22.11,0,0,0,0,3.6,19.74,19.74,0,0,0,.91,4.69c.51,1.56,1.09,3.1,1.69,4.64A3.22,3.22,0,0,1,27.43,38a12,12,0,0,1-6.08,9.49,15.31,15.31,0,0,1-5.78,1.88,19.52,19.52,0,0,1-4.63,0,12.74,12.74,0,0,1-3.69-.95,11.42,11.42,0,0,1-6.9-8A10,10,0,0,1,0,37Z"/><path class="cls-2" d="M53.2,42.92a23.1,23.1,0,0,1-4.15.21A16.38,16.38,0,0,1,43.45,42a19.1,19.1,0,0,1-7.38-4.9A22.08,22.08,0,0,1,30,23.2a20.71,20.71,0,0,1,2.4-11.09,21,21,0,0,1,2.77-4A23.88,23.88,0,0,1,40,3.74,21.21,21.21,0,0,1,47.5.48,24.34,24.34,0,0,1,52.18,0a23,23,0,0,1,8.39,1.35A21.41,21.41,0,0,1,66.65,4.8a15,15,0,0,1,2.92,2.83L66.34,10.1c-.84-.71-1.61-1.43-2.46-2.06a18.77,18.77,0,0,0-4.77-2.77,18.51,18.51,0,0,0-5-1.07,20.5,20.5,0,0,0-3.61,0,16.67,16.67,0,0,0-4.64,1.12,19.2,19.2,0,0,0-9.63,9,17.48,17.48,0,0,0-1.7,5.16,19.9,19.9,0,0,0-.25,5,18.7,18.7,0,0,0,3,9.59A17.69,17.69,0,0,0,41,37.86a24.6,24.6,0,0,0,6.61,3.85,17.27,17.27,0,0,0,4.58,1.07C52.49,42.81,52.83,42.87,53.2,42.92Z"/></svg>