<svg id="Слой_1" data-name="Слой 1" xmlns="http://www.w3.org/2000/svg" viewBox="0 0 44 33"><title>Монтажная область 1</title><path d="M37.48,10.12H30.15V6.59A6.61,6.61,0,0,0,23.63.07H6.52A6.61,6.61,0,0,0,0,6.59V19.9a3.27,3.27,0,0,0,1.9,2.72,2.45,2.45,0,0,0,1.36.27,2.93,2.93,0,0,0,1.9-.81L7.88,19.9h6v3.53a6.61,6.61,0,0,0,6.52,6.52H36.12l2.72,2.17a2.47,2.47,0,0,0,1.9.81,3.47,3.47,0,0,0,3.26-3V16.64A6.61,6.61,0,0,0,37.48,10.12ZM13.85,16.64v.54H7.06a1,1,0,0,0-.81.27l-3,2.72H3c-.27,0-.27,0-.27-.27V6.59a3.71,3.71,0,0,1,3.8-3.8H23.63a3.71,3.71,0,0,1,3.8,3.8v3.53H23.6a1.61,1.61,0,0,0-3.2,0h0A6.61,6.61,0,0,0,13.85,16.64ZM41,30.22a.27.27,0,0,1-.27.27l-3.26-2.72a1,1,0,0,0-.81-.27H20.37a3.71,3.71,0,0,1-3.8-3.8V16.91a4,4,0,0,1,3.8-4.07H37.21a3.71,3.71,0,0,1,3.8,3.8Z"/><path d="M8.16,8.67a1.62,1.62,0,1,0,1.6,1.84.81.81,0,0,0,0-.12s0,0,0,0,0,0,0-.06A1.62,1.62,0,0,0,8.16,8.67Z"/><circle cx="15.21" cy="10.32" r="1.62"/><circle cx="21.6" cy="20.49" r="1.62"/><circle cx="28.65" cy="20.52" r="1.62"/><circle cx="35.44" cy="20.49" r="1.62"/></svg>