<svg id="Слой_1" data-name="Слой 1" xmlns="http://www.w3.org/2000/svg" viewBox="0 0 32 31"><title>Монтажная область 2</title><path d="M13,3.92H30.47a1.22,1.22,0,0,0,1.29-1.29,1.22,1.22,0,0,0-1.29-1.29H13a1.22,1.22,0,0,0-1.29,1.29A1.22,1.22,0,0,0,13,3.92Z"/><path d="M30.47,14.21H13a1.29,1.29,0,0,0,0,2.57H30.47a1.29,1.29,0,0,0,0-2.57Z"/><path d="M30.47,27.08H13a1.29,1.29,0,0,0,0,2.57H30.47a1.29,1.29,0,0,0,0-2.57Z"/><path d="M5.62.44,3.54,2.68l-.85-.81A1,1,0,0,0,1.31,3.33L2.9,4.83a1,1,0,0,0,.69.27h0a1,1,0,0,0,.7-.32l2.77-3A1,1,0,0,0,5.62.44Z"/><path d="M5.62,13.29,3.54,15.53l-.85-.81a1,1,0,0,0-1.38,1.45l1.58,1.5a1,1,0,0,0,.69.27h0a1,1,0,0,0,.7-.32l2.77-3a1,1,0,0,0-1.46-1.36Z"/><path d="M5.62,26.22,3.54,28.46l-.85-.81a1,1,0,0,0-1.38,1.45l1.58,1.5a1,1,0,0,0,.69.27h0a1,1,0,0,0,.7-.32l2.77-3a1,1,0,0,0-1.46-1.36Z"/></svg>