<svg xmlns="http://www.w3.org/2000/svg" viewBox="0 0 21 16"><title>Монтажная область 5</title><path d="M16.68.09H4.32A4.38,4.38,0,0,0,0,4.42V9.36a4.38,4.38,0,0,0,4.32,4.32H15.94l2,1.73a1.59,1.59,0,0,0,1.24.49A1.9,1.9,0,0,0,21,14.05V4.42A4.38,4.38,0,0,0,16.68.09Zm3.09,14a.58.58,0,0,1-1,.49l-2.22-2a.45.45,0,0,0-.37-.12H4.32A3.06,3.06,0,0,1,1.24,9.36V4.42A3.06,3.06,0,0,1,4.32,1.33H16.68a3.06,3.06,0,0,1,3.09,3.09Z"/><path d="M5.66,6.1a1,1,0,0,0-1,1s0,0,0,0,0,0,0,0a.94.94,0,0,0,.25.62.88.88,0,0,0,.29.18A1,1,0,0,0,5.66,8a1,1,0,0,0,0-1.94Z"/><path d="M10.6,6.1a1,1,0,0,0-1,1s0,0,0,0v0a.94.94,0,0,0,.25.62.88.88,0,0,0,.29.17A1,1,0,0,0,10.6,8a1,1,0,1,0,0-1.94Z"/><path d="M15.53,6.1a1,1,0,0,0-1,1s0,0,0,.06h0s0,0,0,.06a1,1,0,0,0,.06.26.89.89,0,0,0,.18.3.87.87,0,0,0,.28.17,1,1,0,0,0,.43.11,1,1,0,0,0,0-1.94Z"/></svg>