<svg id="Слой_1" data-name="Слой 1" xmlns="http://www.w3.org/2000/svg" viewBox="0 0 16 16"><title>Монтажная область 8</title><path d="M13.5,1.5h-2V1a.5.5,0,0,0-1,0v.5h-5V1A.47.47,0,0,0,5,.5a.47.47,0,0,0-.5.5v.5h-2A2.48,2.48,0,0,0,0,4v9a2.48,2.48,0,0,0,2.5,2.5h11A2.48,2.48,0,0,0,16,13V4A2.48,2.48,0,0,0,13.5,1.5ZM1,4A1.54,1.54,0,0,1,2.5,2.5h2V3a.47.47,0,0,0,.5.5A.47.47,0,0,0,5.5,3V2.5h5V3a.5.5,0,0,0,1,0V2.5h2A1.54,1.54,0,0,1,15,4V5.5H1Zm14,9a1.54,1.54,0,0,1-1.5,1.5H2.5A1.54,1.54,0,0,1,1,13V6.5H15Z"/><path d="M3.5,13a.91.91,0,0,0,.7-.3,1,1,0,0,0,0-1.4,1,1,0,0,0-1.4,0,.91.91,0,0,0-.3.7,1.08,1.08,0,0,0,.3.7A.91.91,0,0,0,3.5,13Z"/><path d="M3.5,10a.91.91,0,0,0,.7-.3A1.08,1.08,0,0,0,4.5,9a1.08,1.08,0,0,0-.3-.7,1,1,0,0,0-1.4,0,1,1,0,0,0,0,1.4A.91.91,0,0,0,3.5,10Z"/><path d="M6.5,13a.91.91,0,0,0,.7-.3,1,1,0,0,0,0-1.4,1,1,0,0,0-1.4,0,1,1,0,0,0,0,1.4A.91.91,0,0,0,6.5,13Z"/><path d="M6.5,10a.91.91,0,0,0,.7-.3A1.08,1.08,0,0,0,7.5,9a1.08,1.08,0,0,0-.3-.7,1,1,0,0,0-1.4,0,1.08,1.08,0,0,0-.3.7,1.08,1.08,0,0,0,.3.7A.91.91,0,0,0,6.5,10Z"/><path d="M9.5,13a1,1,0,0,0,.7-1.7,1,1,0,0,0-1.4,0,1,1,0,0,0,0,1.4A.91.91,0,0,0,9.5,13Z"/><path d="M9.5,10a1,1,0,0,0,1-1,1.08,1.08,0,0,0-.3-.7,1,1,0,0,0-1.4,0,1.08,1.08,0,0,0-.3.7,1.08,1.08,0,0,0,.3.7A.91.91,0,0,0,9.5,10Z"/><path d="M12.5,13a.91.91,0,0,0,.7-.3,1,1,0,0,0,0-1.4,1,1,0,0,0-1.4,0,.91.91,0,0,0-.3.7,1.08,1.08,0,0,0,.3.7A.91.91,0,0,0,12.5,13Z"/><path d="M12.5,10a1,1,0,0,0,1-1,1.08,1.08,0,0,0-.3-.7,1,1,0,0,0-1.4,0,1.08,1.08,0,0,0-.3.7,1.08,1.08,0,0,0,.3.7A.91.91,0,0,0,12.5,10Z"/></svg>