<svg id="Слой_1" data-name="Слой 1" xmlns="http://www.w3.org/2000/svg" viewBox="0 0 20 20"><defs><style>.cls-1{fill:#231815;}</style></defs><title>Монтажная область 6</title><path class="cls-1" d="M14.24,20h0a5.14,5.14,0,0,1-2.94-.94,41.63,41.63,0,0,1-5.52-4.7,41.63,41.63,0,0,1-4.7-5.52C-.68,6.49,0,3.44,2.73.62a2.2,2.2,0,0,1,3.05,0L7.43,2.26a2.28,2.28,0,0,1,0,3.05l-.7.7c-.23.23-.12.59,0,.82a28,28,0,0,0,3.05,3.29,42,42,0,0,0,3.29,3.05.57.57,0,0,0,.82,0l.7-.7a2.2,2.2,0,0,1,3.05,0l1.64,1.64a2.28,2.28,0,0,1,0,3.05A6.63,6.63,0,0,1,14.24,20ZM4.26,1.2a1.67,1.67,0,0,0-.7.23C1.2,3.79.73,6.26,2,8.14a39.92,39.92,0,0,0,4.58,5.4A39.92,39.92,0,0,0,12,18.12c1.88,1.29,4.35.82,6.7-1.53a.86.86,0,0,0,.23-.7,1.67,1.67,0,0,0-.23-.7l-1.76-1.64a1.07,1.07,0,0,0-1.41,0l-.7.7a1.78,1.78,0,0,1-2.35,0,30.07,30.07,0,0,1-3.41-3.17A45.11,45.11,0,0,1,5.9,7.67a1.78,1.78,0,0,1,0-2.35l.7-.7a.86.86,0,0,0,.23-.7,1.67,1.67,0,0,0-.23-.7L5,1.56A1,1,0,0,0,4.26,1.2Z"/></svg>