<svg id="Слой_1" data-name="Слой 1" xmlns="http://www.w3.org/2000/svg" viewBox="0 0 14 17"><title>Монтажная область 9</title><path d="M10.06,8.15a5.11,5.11,0,0,0,1.17-3.28A4.56,4.56,0,0,0,6.95.06,4.56,4.56,0,0,0,2.67,4.87,5.11,5.11,0,0,0,3.85,8.16,4.75,4.75,0,0,0,0,12.77v3.63a.5.5,0,0,0,.53.53.5.5,0,0,0,.53-.53V12.77A3.6,3.6,0,0,1,4.7,9.14H5a3.86,3.86,0,0,0,1.92.53,3.86,3.86,0,0,0,1.92-.53h.32a3.6,3.6,0,0,1,3.63,3.63v3.63a.5.5,0,0,0,.53.53.68.68,0,0,0,.64-.53V12.77A4.74,4.74,0,0,0,10.06,8.15ZM3.74,4.87A3.5,3.5,0,0,1,6.95,1.13a3.5,3.5,0,0,1,3.21,3.74A3.5,3.5,0,0,1,6.95,8.61,3.5,3.5,0,0,1,3.74,4.87Z"/></svg>