<svg id="Слой_1" data-name="Слой 1" xmlns="http://www.w3.org/2000/svg" viewBox="0 0 42 42"><title>Монтажная область 4</title><path d="M28.65,41.77a2.49,2.49,0,0,1-2.34-1.56L20.87,27l-6.23,5.45,1,3.12v.52a2.67,2.67,0,0,1-2.86,2.6h0a3,3,0,0,1-2.08-.78L4,31.12A3.41,3.41,0,0,1,3.21,28a2.82,2.82,0,0,1,2.6-1.82h.52l3.12,1L14.89,21,1.65,15.55A2.74,2.74,0,0,1,.1,13.73a2.22,2.22,0,0,1,.78-2.34L2.43,9.84a2.36,2.36,0,0,1,1.82-.78l20,2.08,6.49-6.49A15.71,15.71,0,0,1,40.59.23a1.56,1.56,0,0,1,1,.26c.26.26.52.52.26,1a15.71,15.71,0,0,1-4.41,9.86L31,17.88l2.08,19.73a3,3,0,0,1-.78,2.08l-1.56,1.56A8,8,0,0,1,28.65,41.77ZM20.87,24.37a2.27,2.27,0,0,1,2.34,1.56l5.45,13,1.3-1.3L27.87,18.14a3,3,0,0,1,.78-2.08l6.49-6.49a13.56,13.56,0,0,0,3.63-6.49,12.47,12.47,0,0,0-6.49,3.63L25.8,13.21A2.36,2.36,0,0,1,24,14L4,11.91l-1.3,1.56,13.24,5.19a2.74,2.74,0,0,1,1.56,1.82A2.65,2.65,0,0,1,17,22.82l-6,7c-.26.52-.78.52-1.3.52L5.81,28.79v.52l6.75,6.75h.52l-1-3.63a1,1,0,0,1,.52-1.3l7-6C19.57,24.63,20.35,24.37,20.87,24.37Z"/></svg>