<svg id="Слой_1" data-name="Слой 1" xmlns="http://www.w3.org/2000/svg" viewBox="0 0 17 19"><title>Монтажная область 15</title><path d="M13.46,18.17c-.3-.11-.86-.27-1.38-.51A23.22,23.22,0,0,1,4.33,12a21.92,21.92,0,0,1-4-6.56A4.22,4.22,0,0,1,0,3.73,3,3,0,0,1,2.62,1.08a1.29,1.29,0,0,1,1.16.33A11.3,11.3,0,0,1,6.3,4.84a1.19,1.19,0,0,1-.38,1.62l-.31.23A1.59,1.59,0,0,0,5,8.86a7.08,7.08,0,0,0,2.34,3,12.68,12.68,0,0,0,2.15,1.24,1.2,1.2,0,0,0,1.63-.48,3.44,3.44,0,0,1,.83-.79,1.63,1.63,0,0,1,1.83.2c.9.61,1.78,1.26,2.63,1.94a1.36,1.36,0,0,1,.43,1.81A4,4,0,0,1,13.46,18.17Z"/><path d="M16.84,8.66c0,.19,0,.39,0,.58s-.11.41-.36.42-.42-.17-.45-.43c-.06-.51-.08-1-.18-1.54a7.11,7.11,0,0,0-2.27-4.27A7.86,7.86,0,0,0,9.91,1.81c-.37-.07-.74-.11-1.11-.17-.22,0-.46-.08-.43-.39s.19-.42.49-.43A7.68,7.68,0,0,1,15,3.78,7.42,7.42,0,0,1,16.84,8.66Z"/><path d="M14.73,8c0,.13,0,.26,0,.39s-.1.42-.38.43-.39-.15-.43-.4-.09-.74-.16-1.11A3.84,3.84,0,0,0,10.92,4.1c-.48-.14-1-.25-1.47-.37C9.2,3.67,9,3.59,9,3.26s.27-.41.57-.39a5.58,5.58,0,0,1,4.55,2.84A4.55,4.55,0,0,1,14.73,8Z"/><path d="M10.27,5A2.78,2.78,0,0,1,12.76,7.6c0,.27,0,.58-.41.6s-.41-.27-.44-.53A2,2,0,0,0,10.1,5.83c-.22,0-.48-.09-.47-.41S9.86,5,10.27,5Z"/></svg>