<svg id="Слой_1" data-name="Слой 1" xmlns="http://www.w3.org/2000/svg" viewBox="0 0 21 18"><title>Монтажная область 13</title><path d="M11.14,14.28,8.57,16.77c-.53.52-.84.47-1.06-.24q-.82-2.67-1.56-5.36a.86.86,0,0,0-.62-.66C4.11,10.1,2.9,9.67,1.69,9.24L1.5,9.17c-.41-.17-.79-.4-.8-.9s.39-.64.74-.79c1.34-.57,2.69-1.13,4-1.69L18.88.22c.38-.16.8-.36,1.18-.08s.19.73.12,1.12q-1.46,7.85-2.93,15.7a1.12,1.12,0,0,1-1.94.7l-3.73-3Zm7.2-12.07-14.51,6c1.21.44,2.33.83,3.43,1.25A.71.71,0,0,0,8,9.43L15.57,4.9l.33-.18a.44.44,0,0,1-.18.25L10.2,10.22c-.11.11-.26.24-.28.38-.12.92-.21,1.85-.31,2.78l.13.1L11,12l4.78,3.89Z"/></svg>