<svg id="Слой_1" data-name="Слой 1" xmlns="http://www.w3.org/2000/svg" viewBox="0 0 43 35"><title>Монтажная область 3</title><path d="M40.92,12V6.39A6.32,6.32,0,0,0,34.53,0H6.43A6.32,6.32,0,0,0,0,6.39V28.61A6.32,6.32,0,0,0,6.43,35h28.1a6.32,6.32,0,0,0,6.39-6.39V23.29a4.44,4.44,0,0,0,2-3.62V15.58A4.44,4.44,0,0,0,40.92,12ZM38.36,28.61a3.93,3.93,0,0,1-3.83,3.83H6.43a3.93,3.93,0,0,1-3.83-3.83V6.39A3.93,3.93,0,0,1,6.43,2.55h28.1a3.93,3.93,0,0,1,3.83,3.83v4.85H25.59a4.48,4.48,0,0,0-4.34,4.34v4.09A4.48,4.48,0,0,0,25.59,24H38.36Zm2-8.94a1.75,1.75,0,0,1-1.79,1.79h-13a1.75,1.75,0,0,1-1.79-1.79V15.58a1.75,1.75,0,0,1,1.79-1.79h13a1.75,1.75,0,0,1,1.79,1.79Z"/><circle cx="27.12" cy="17.59" r="1.53"/></svg>