<svg id="Слой_1" data-name="Слой 1" xmlns="http://www.w3.org/2000/svg" viewBox="0 0 21 16"><title>Монтажная область 7</title><path d="M17.48.11h-14A3.51,3.51,0,0,0,0,3.63v8.74a3.51,3.51,0,0,0,3.52,3.52H17.35A3.71,3.71,0,0,0,21,12.37V3.63A3.51,3.51,0,0,0,17.48.11ZM19.63,13,15.35,7.73,19.7,5.2v7.3A2,2,0,0,1,19.63,13ZM3.52,1.54h14a2.28,2.28,0,0,1,2.2,2L11.74,8.2A3.34,3.34,0,0,1,9,8.2L1.31,3.73A2.29,2.29,0,0,1,3.52,1.54ZM1.35,12.88a2,2,0,0,1,0-.38V5.28L5.54,7.74Zm2.18,1.83A2.2,2.2,0,0,1,2,14.1L6.69,8.4l1.66,1a3.83,3.83,0,0,0,2.09.52,3.56,3.56,0,0,0,2.09-.52l1.69-1,4.7,5.76a2.18,2.18,0,0,1-1.43.57Z"/></svg>